<svg width="96" height="96" xmlns="http://www.w3.org/2000/svg" xmlns:xlink="http://www.w3.org/1999/xlink" xml:space="preserve" overflow="hidden"><g><path d="M53 7C53 8.65685 51.6569 10 50 10 48.3431 10 47 8.65685 47 7 47 5.34315 48.3431 4 50 4 51.6569 4 53 5.34315 53 7Z" stroke="#FFFFFF" fill="#FFFFFF"/><path d="M58 16C58 17.6569 56.6569 19 55 19 53.3431 19 52 17.6569 52 16 52 14.3431 53.3431 13 55 13 56.6569 13 58 14.3431 58 16Z" stroke="#FFFFFF" fill="#FFFFFF"/><path d="M47 14C47 15.6569 45.6569 17 44 17 42.3431 17 41 15.6569 41 14 41 12.3431 42.3431 11 44 11 45.6569 11 47 12.3431 47 14Z" stroke="#FFFFFF" fill="#FFFFFF"/><path d="M50 25C50 27.2091 48.2091 29 46 29 43.7909 29 42 27.2091 42 25 42 22.7909 43.7909 21 46 21 48.2091 21 50 22.7909 50 25Z" stroke="#FFFFFF" fill="#FFFFFF"/><path d="M67.5 83.6 56 57.6 56 40C56 36.4 58.9 34.9 59 34.8 60 34.3 60.4 33.1 59.9 32.1 59.5 31.4 58.8 31 58 31L58 31 38 31 38 31C37.2 31 36.5 31.4 36.1 32.1 35.6 33.1 36 34.3 37 34.8 37 34.8 40 36.4 40 40L40 57.6 28.5 83.6C27.7 85.5 27.9 87.6 29 89.3 30.1 91 32 92 34 92L62 92C64 92 65.9 91 67 89.3 68.1 87.6 68.3 85.5 67.5 83.6ZM52 40 52 44 44 44 44 40C44 37.9 43.4 36.3 42.7 35L53.4 35C52.6 36.3 52 37.9 52 40Z" stroke="#FFFFFF" fill="#FFFFFF"/></g></svg>